<svg xmlns="http://www.w3.org/2000/svg" width="30" height="32" fill="none"><path fill="url(#a)" fill-rule="evenodd" d="M15 .253a3.75 3.75 0 0 0-1.873.502h-.002L8.206 3.567a.75.75 0 0 0-.579.331L2.628 6.754l-.003.002a3.75 3.75 0 0 0-1.211 1.117.749.749 0 0 0-.24.398A3.75 3.75 0 0 0 .75 9.999V22a3.75 3.75 0 0 0 1.875 3.245l.003.001 5 2.857a.75.75 0 0 0 .578.33l4.92 2.812a3.75 3.75 0 0 0 1.424.475.747.747 0 0 0 .9 0c.5-.06.985-.221 1.424-.474l.001-.001 4.919-2.811a.75.75 0 0 0 .579-.331l5-2.857.002-.001A3.75 3.75 0 0 0 29.25 22V10c0-.603-.146-1.196-.424-1.73a.754.754 0 0 0-.24-.397 3.75 3.75 0 0 0-1.21-1.117l-.004-.002-5-2.857a.75.75 0 0 0-.578-.33L16.875.755l-.002-.001A3.75 3.75 0 0 0 15 .253Zm.75 29.865a2.25 2.25 0 0 0 .375-.172l.003-.002L21 27.16V19.9a.75.75 0 0 1 .375-.65l6.375-3.683v-5.566c0-.157-.017-.314-.05-.466l-11.95 6.913v13.67Zm-1.5-13.67L2.3 9.535c-.033.152-.05.308-.05.466v5.566l6.375 3.684A.75.75 0 0 1 9 19.9v7.259l4.872 2.784.003.002c.12.069.246.127.375.172v-13.67Zm.75-1.3 11.917-6.893a2.247 2.247 0 0 0-.29-.2h-.002l-4.951-2.83-6.299 3.64a.75.75 0 0 1-.75 0l-6.299-3.64-4.95 2.83h-.002c-.102.06-.2.126-.29.2L15 15.15Zm7.5 11.155 4.125-2.357.002-.001a2.25 2.25 0 0 0 1.123-1.946v-4.7l-5.25 3.034v5.97ZM2.25 22v-4.7l5.25 3.033v5.97l-4.125-2.357-.001-.001A2.25 2.25 0 0 1 2.25 22ZM20.166 4.364l-4.038-2.308-.003-.001a2.25 2.25 0 0 0-2.25 0l-.003.001-4.038 2.308L15 7.349l5.166-2.985Z" clip-rule="evenodd"/><defs><linearGradient id="a" x1="29.25" x2=".75" y1="16.062" y2="16.062" gradientUnits="userSpaceOnUse"><stop stop-color="#FFB168"/><stop offset="1" stop-color="#E36D00"/></linearGradient></defs></svg>